# xmcd CD database file
#
# Track frame offsets:
#	150
#	28551
#	59757
#	90298
#	118567
#	144180
#	174172
#	208907
#	242450
#
# Disc length: 3698 seconds
#
# Revision: 0
# Processed by: cddbd v1.5.1PL0 Copyright (c) Steve Scherf et al.
# Submitted via: CDex 1.50
#
DISCID=6e0e7009
DTITLE=Jazz and Dintorni # 53 - Dave Liebman
DYEAR=1900
DGENRE=Jazz
TTITLE0=Besame Mucho
TTITLE1=How Insensitive
TTITLE2=Caravan
TTITLE3=Night in Tunisia
TTITLE4=Milestones
TTITLE5=I Didn't Know What Time It Was
TTITLE6=Begin The Beguine
TTITLE7=I've Got You Under My Skin
TTITLE8=Get Out of Town
EXTD=
EXTT0=
EXTT1=
EXTT2=
EXTT3=
EXTT4=
EXTT5=
EXTT6=
EXTT7=
EXTT8=
PLAYORDER=
